<?xml version="1.0" standalone="no"?>
<!DOCTYPE svg PUBLIC "-//W3C//DTD SVG 20010904//EN"
 "http://www.w3.org/TR/2001/REC-SVG-20010904/DTD/svg10.dtd">
<svg version="1.0" xmlns="http://www.w3.org/2000/svg"
 width="100.000000pt" height="100.000000pt" viewBox="0 0 100.000000 100.000000"
 preserveAspectRatio="xMidYMid meet">
<metadata>
Created by potrace 1.10, written by Peter Selinger 2001-2011
</metadata>
<g transform="translate(0.000000,100.000000) scale(0.100000,-0.100000)"
fill="#ffffff" stroke="none">
<path d="M470 969 c-63 -12 -130 -57 -167 -113 -40 -59 -53 -103 -53 -183 l0
-63 93 -1 c91 -1 92 -1 57 -16 -108 -46 -150 -119 -150 -260 0 -122 23 -184
89 -246 84 -79 206 -97 305 -46 98 50 146 129 154 256 l5 83 -99 1 c-62 0 -90
4 -74 8 79 24 142 84 161 153 18 68 7 224 -19 274 -33 65 -69 101 -125 128
-62 29 -116 37 -177 25z m95 -203 c23 -35 18 -542 -5 -556 -23 -15 -57 -12
-74 6 -24 23 -24 518 0 552 20 29 59 29 79 -2z"/>
</g>
</svg>
